<svg width="343" height="450" viewBox="0 0 343 450" fill="none" xmlns="http://www.w3.org/2000/svg">
<rect x="0.955078" width="683" height="426" rx="32" fill="#FFBA79"/>
<path fill-rule="evenodd" clip-rule="evenodd" d="M421.718 -44.7027C426.492 -56.0171 428.878 -61.6744 432.754 -65.8291C436.18 -69.5009 440.422 -72.315 445.136 -74.0438C450.471 -76 456.611 -76 468.891 -76H632.8C650.722 -76 659.683 -76 666.528 -72.5122C672.549 -69.4443 677.444 -64.5489 680.512 -58.5277C684 -51.6825 684 -42.7217 684 -24.8V398.8C684 416.722 684 425.683 680.512 432.528C677.444 438.549 672.549 443.444 666.528 446.512C659.683 450 650.722 450 632.8 450H290.172C264.385 450 251.491 450 243.402 444.572C236.331 439.827 231.442 432.459 229.819 424.099C227.962 414.536 232.974 402.656 242.999 378.897L421.718 -44.7027Z" fill="#C897E4"/>
</svg>
