<svg width="143" height="46" viewBox="0 0 143 46" fill="none" xmlns="http://www.w3.org/2000/svg">
<rect width="143" height="46" rx="8" fill="white"/>
<path d="M41.8408 29H43.9658L39.9658 17.7266H37.6924L33.6924 29H35.7705L36.7314 26.0859H40.8799L41.8408 29ZM38.7783 19.7188H38.833L40.4033 24.5312H37.2002L38.7783 19.7188ZM49.5283 20.5781C48.3252 20.5781 47.3877 21.1875 46.9189 22.1484H46.8799V20.7188H44.9814V31.7266H46.9268V27.625H46.9658C47.4189 28.5547 48.3564 29.1328 49.5596 29.1328C51.6377 29.1328 52.9658 27.5 52.9658 24.8594C52.9658 22.2109 51.6299 20.5781 49.5283 20.5781ZM48.9346 27.5391C47.7236 27.5391 46.9189 26.4844 46.9111 24.8594C46.9189 23.25 47.7236 22.1797 48.9346 22.1797C50.1924 22.1797 50.9736 23.2266 50.9736 24.8594C50.9736 26.5 50.1924 27.5391 48.9346 27.5391ZM58.7627 20.5781C57.5596 20.5781 56.6221 21.1875 56.1533 22.1484H56.1143V20.7188H54.2158V31.7266H56.1611V27.625H56.2002C56.6533 28.5547 57.5908 29.1328 58.7939 29.1328C60.8721 29.1328 62.2002 27.5 62.2002 24.8594C62.2002 22.2109 60.8643 20.5781 58.7627 20.5781ZM58.1689 27.5391C56.958 27.5391 56.1533 26.4844 56.1455 24.8594C56.1533 23.25 56.958 22.1797 58.1689 22.1797C59.4268 22.1797 60.208 23.2266 60.208 24.8594C60.208 26.5 59.4268 27.5391 58.1689 27.5391ZM63.5049 29H65.4502V17.7266H63.5049V29ZM68.0361 32.0781C69.9268 32.0781 70.8408 31.3828 71.5439 29.3281L74.5439 20.7188H72.4971L70.5439 27.3438H70.5049L68.5596 20.7188H66.4346L69.3799 29.0078C69.3877 29.0312 69.2627 29.4453 69.2627 29.4688C69.0518 30.2344 68.6377 30.5391 67.833 30.5391C67.7158 30.5391 67.3721 30.5312 67.2705 30.5078V32.0469C67.3721 32.0703 67.9189 32.0781 68.0361 32.0781ZM80.8096 29V21.0938H80.8799L86.4814 29H88.2158V17.7266H86.2783V25.625H86.208L80.6143 17.7266H78.8643V29H80.8096ZM93.6768 29.1641C96.1064 29.1641 97.6846 27.5469 97.6846 24.8594C97.6846 22.1797 96.0908 20.5469 93.6768 20.5469C91.2627 20.5469 89.6689 22.1875 89.6689 24.8594C89.6689 27.5469 91.2471 29.1641 93.6768 29.1641ZM93.6768 27.625C92.4424 27.625 91.6455 26.625 91.6455 24.8594C91.6455 23.1016 92.4502 22.0938 93.6768 22.0938C94.9111 22.0938 95.708 23.1016 95.708 24.8594C95.708 26.625 94.9111 27.625 93.6768 27.625ZM110.122 20.7188H108.2L106.802 27.0781H106.755L105.138 20.7188H103.271L101.653 27.0781H101.614L100.216 20.7188H98.2627L100.505 29H102.536L104.161 22.9453H104.2L105.833 29H107.88L110.122 20.7188Z" fill="#5468E7"/>
</svg>
