<svg width="199" height="567" viewBox="0 0 199 567" fill="none" xmlns="http://www.w3.org/2000/svg">
<path d="M47.6772 -15.9834C26.1369 -11.3365 8.94444 6.16249 2.53287 26.9421C-4.10641 48.4689 2.60403 71.0631 19.1773 86.1496C35.1814 100.702 59.0273 107.57 79.735 99.6137C99.105 92.17 115.934 70.9421 106.584 49.7213C98.6851 31.8025 75.2733 21.3273 56.985 29.1481C38.6967 36.9689 29.8087 58.8586 33.1533 77.7595C37.3802 101.606 60.5501 114.764 81.7346 121.432C107.395 129.559 137.29 130.755 158.311 149.456C174.884 164.201 183.01 187.173 181.36 209.112C180.604 220.106 177.119 230.739 171.219 240.047C164.694 250.145 153.557 258.791 141.275 259.972C127.612 261.289 117.792 250.806 116.803 237.648C115.728 223.181 124.495 210.535 132.828 199.555C148.747 178.59 169.12 157.718 195.563 151.257C218.982 145.564 247.148 152.011 259.565 174.306C273.641 199.583 263.621 229.749 248.699 252.052C240.601 264.15 230.973 275.187 221.494 286.21C211.859 297.418 202.138 308.569 193.03 320.233C175.795 342.35 160.759 366.624 154.276 394.193C148.192 420.053 150.006 447.864 164.359 470.771C177.695 492.12 199.228 507.185 222.127 516.842C250.734 528.94 281.831 533.693 312.146 539.486L409.38 558.074L456.004 566.983C457.007 567.176 457.427 565.638 456.431 565.439L360.364 547.072C329.11 541.101 297.636 535.814 266.596 528.812C238.964 522.571 211.247 513.483 188.881 495.5C178.976 487.537 170.266 477.98 163.939 466.907C157.148 454.811 153.29 441.291 152.675 427.433C149.579 367.151 194.225 320.959 230.325 278.339C247.518 258.029 265.194 235.414 267.556 207.888C268.588 195.99 266.702 183.55 260.732 173.082C255.232 163.636 246.73 156.302 236.58 152.246C214.677 143.244 190.006 148.133 170.522 160.536C159.634 167.489 150.148 176.441 141.68 186.119C133.034 196.011 123.99 206.878 118.738 219.011C114.269 229.344 113.252 242.075 119.841 251.796C125.733 260.478 136.165 263.224 146.035 260.741C167.533 255.332 179.951 233.564 182.576 212.884C185.174 192.375 179.175 170.634 165.768 154.808C148.69 134.676 122.033 129.844 97.6604 124.051C74.5759 118.571 46.2326 109.327 36.8181 84.9968C29.2964 65.5622 37.366 39.8083 56.9352 30.913C76.7036 21.9108 103.645 35.8944 107.26 57.4496C111.601 83.2818 83.3785 101.642 60.5715 101.379C37.7645 101.115 15.4628 86.4343 6.06244 65.6405C-3.70791 43.9927 3.15197 18.374 19.3268 1.76461C27.1073 -6.34641 37.1118 -11.9764 48.0828 -14.4178C49.1004 -14.6384 48.6592 -16.1756 47.6772 -15.9834Z" fill="url(#paint0_linear_0_1919)"/>
<defs>
<linearGradient id="paint0_linear_0_1919" x1="395.246" y1="567" x2="395.246" y2="141.561" gradientUnits="userSpaceOnUse">
<stop stop-color="#323259" stop-opacity="0.01"/>
<stop offset="1" stop-color="#323259"/>
</linearGradient>
</defs>
</svg>
