<svg width="456" height="458" viewBox="0 0 456 458" fill="none" xmlns="http://www.w3.org/2000/svg">
<path opacity="0.5" d="M-126.93 409.957C-122.286 431.482 -104.8 448.663 -84.0355 455.07C-62.5244 461.705 -39.9466 454.999 -24.8711 438.437C-10.3288 422.444 -3.46661 398.615 -11.4168 377.922C-18.8551 358.565 -40.0675 341.747 -61.2728 351.091C-79.1786 358.985 -89.6462 382.38 -81.8311 400.656C-74.0159 418.931 -52.1422 427.813 -33.2551 424.471C-9.42572 420.247 3.72272 397.093 10.3858 375.923C18.5067 350.281 19.7014 320.407 38.3894 299.401C53.1236 282.839 76.0783 274.718 98.0018 276.368C108.988 277.122 119.613 280.605 128.914 286.501C139.004 293.022 147.645 304.151 148.825 316.425C150.141 330.078 139.666 339.891 126.517 340.88C112.06 341.954 99.4241 333.193 88.4516 324.866C67.5023 308.958 46.6454 288.599 40.1885 262.174C34.4996 238.771 40.9423 210.626 63.2214 198.217C88.4801 184.151 118.624 194.163 140.91 209.075C152.999 217.168 164.029 226.789 175.044 236.261C186.244 245.89 197.387 255.603 209.042 264.706C231.143 281.929 255.399 296.954 282.948 303.433C308.789 309.513 336.58 307.699 359.47 293.356C380.804 280.03 395.858 258.512 405.508 235.628C417.596 207.042 422.347 175.966 428.135 145.673L446.709 48.5064L455.612 1.9144C455.805 0.911743 454.268 0.492188 454.069 1.48773L435.716 97.4877C429.749 128.72 424.466 160.172 417.469 191.191C411.232 218.803 402.151 246.501 384.181 268.851C376.224 278.75 366.674 287.454 355.609 293.776C343.522 300.562 330.012 304.418 316.164 305.033C255.925 308.126 209.767 263.511 167.179 227.436C146.884 210.256 124.285 192.592 96.7787 190.231C84.8889 189.2 72.4587 191.084 61.9983 197.05C52.5593 202.547 45.23 211.043 41.1769 221.186C32.1814 243.074 37.0667 267.728 49.4614 287.198C56.4089 298.078 65.3547 307.557 75.0258 316.019C84.9103 324.659 95.7689 333.698 107.893 338.946C118.219 343.411 130.94 344.428 140.654 337.843C149.33 331.955 152.075 321.53 149.593 311.667C144.189 290.185 122.436 277.776 101.771 275.152C81.2765 272.556 59.552 278.551 43.7369 291.948C23.6196 309.015 18.7912 335.653 13.0027 360.009C7.52716 383.077 -1.71017 411.401 -26.0231 420.809C-45.4435 428.325 -71.1786 420.261 -80.0675 400.706C-89.0631 380.951 -75.0897 354.028 -53.5502 350.416C-27.7368 346.078 -9.39017 374.281 -9.65328 397.072C-9.9164 419.863 -24.5866 442.149 -45.3653 451.543C-66.9973 461.306 -92.5973 454.451 -109.195 438.288C-117.3 430.513 -122.926 420.515 -125.365 409.552C-125.586 408.535 -127.122 408.976 -126.93 409.957Z" fill="#9A97ED"/>
</svg>
